<?xml version="1.0" standalone="no"?>
<svg xmlns:xlink="http://www.w3.org/1999/xlink" id="wave" style="transform:rotate(0deg); transition: 0.3s" viewBox="0 0 1440 410" version="1.1" xmlns="http://www.w3.org/2000/svg"><defs><linearGradient id="sw-gradient-0" x1="0" x2="0" y1="1" y2="0"><stop stop-color="rgba(16, 16, 16, 1)" offset="0%"/><stop stop-color="rgba(52.793, 52.625, 52.625, 1)" offset="100%"/></linearGradient></defs><path style="transform:translate(0, 0px); opacity:1" fill="url(#sw-gradient-0)" d="M0,0L13.3,6.8C26.7,14,53,27,80,27.3C106.7,27,133,14,160,13.7C186.7,14,213,27,240,61.5C266.7,96,293,150,320,177.7C346.7,205,373,205,400,191.3C426.7,178,453,150,480,123C506.7,96,533,68,560,82C586.7,96,613,150,640,164C666.7,178,693,150,720,136.7C746.7,123,773,123,800,157.2C826.7,191,853,260,880,280.2C906.7,301,933,273,960,252.8C986.7,232,1013,219,1040,177.7C1066.7,137,1093,68,1120,54.7C1146.7,41,1173,82,1200,143.5C1226.7,205,1253,287,1280,280.2C1306.7,273,1333,178,1360,177.7C1386.7,178,1413,273,1440,307.5C1466.7,342,1493,314,1520,252.8C1546.7,191,1573,96,1600,82C1626.7,68,1653,137,1680,157.2C1706.7,178,1733,150,1760,177.7C1786.7,205,1813,287,1840,300.7C1866.7,314,1893,260,1907,232.3L1920,205L1920,410L1906.7,410C1893.3,410,1867,410,1840,410C1813.3,410,1787,410,1760,410C1733.3,410,1707,410,1680,410C1653.3,410,1627,410,1600,410C1573.3,410,1547,410,1520,410C1493.3,410,1467,410,1440,410C1413.3,410,1387,410,1360,410C1333.3,410,1307,410,1280,410C1253.3,410,1227,410,1200,410C1173.3,410,1147,410,1120,410C1093.3,410,1067,410,1040,410C1013.3,410,987,410,960,410C933.3,410,907,410,880,410C853.3,410,827,410,800,410C773.3,410,747,410,720,410C693.3,410,667,410,640,410C613.3,410,587,410,560,410C533.3,410,507,410,480,410C453.3,410,427,410,400,410C373.3,410,347,410,320,410C293.3,410,267,410,240,410C213.3,410,187,410,160,410C133.3,410,107,410,80,410C53.3,410,27,410,13,410L0,410Z"/></svg>