<?xml version="1.0" standalone="no"?>
<svg xmlns:xlink="http://www.w3.org/1999/xlink" id="wave" style="transform:rotate(180deg); transition: 0.3s" viewBox="0 0 1440 230" version="1.1" xmlns="http://www.w3.org/2000/svg"><defs><linearGradient id="sw-gradient-0" x1="0" x2="0" y1="1" y2="0"><stop stop-color="rgba(16, 16, 16, 1)" offset="0%"/><stop stop-color="rgba(52.793, 52.625, 52.625, 1)" offset="100%"/></linearGradient></defs><path style="transform:translate(0, 0px); opacity:1" fill="url(#sw-gradient-0)" d="M0,115L24,99.7C48,84,96,54,144,61.3C192,69,240,115,288,126.5C336,138,384,115,432,115C480,115,528,138,576,153.3C624,169,672,176,720,164.8C768,153,816,123,864,118.8C912,115,960,138,1008,145.7C1056,153,1104,146,1152,118.8C1200,92,1248,46,1296,42.2C1344,38,1392,77,1440,107.3C1488,138,1536,161,1584,176.3C1632,192,1680,199,1728,187.8C1776,176,1824,146,1872,145.7C1920,146,1968,176,2016,187.8C2064,199,2112,192,2160,191.7C2208,192,2256,199,2304,191.7C2352,184,2400,161,2448,149.5C2496,138,2544,138,2592,130.3C2640,123,2688,107,2736,107.3C2784,107,2832,123,2880,111.2C2928,100,2976,61,3024,46C3072,31,3120,38,3168,46C3216,54,3264,61,3312,61.3C3360,61,3408,54,3432,49.8L3456,46L3456,230L3432,230C3408,230,3360,230,3312,230C3264,230,3216,230,3168,230C3120,230,3072,230,3024,230C2976,230,2928,230,2880,230C2832,230,2784,230,2736,230C2688,230,2640,230,2592,230C2544,230,2496,230,2448,230C2400,230,2352,230,2304,230C2256,230,2208,230,2160,230C2112,230,2064,230,2016,230C1968,230,1920,230,1872,230C1824,230,1776,230,1728,230C1680,230,1632,230,1584,230C1536,230,1488,230,1440,230C1392,230,1344,230,1296,230C1248,230,1200,230,1152,230C1104,230,1056,230,1008,230C960,230,912,230,864,230C816,230,768,230,720,230C672,230,624,230,576,230C528,230,480,230,432,230C384,230,336,230,288,230C240,230,192,230,144,230C96,230,48,230,24,230L0,230Z"/></svg>