<?xml version="1.0" standalone="no"?>
<svg xmlns:xlink="http://www.w3.org/1999/xlink" id="wave" style="transform:rotate(180deg); transition: 0.3s" viewBox="0 0 1440 100" version="1.1" xmlns="http://www.w3.org/2000/svg"><defs><linearGradient id="sw-gradient-0" x1="0" x2="0" y1="1" y2="0"><stop stop-color="rgba(0, 0, 0, 1)" offset="0%"/><stop stop-color="rgba(29, 40, 100, 1)" offset="100%"/></linearGradient></defs><path style="transform:translate(0, 0px); opacity:1" fill="url(#sw-gradient-0)" d="M0,0L120,40L240,90L360,70L480,10L600,40L720,60L840,50L960,60L1080,90L1200,40L1320,50L1440,30L1560,60L1680,70L1800,30L1920,70L2040,40L2160,90L2280,80L2400,50L2520,70L2640,20L2760,90L2880,30L2880,100L2760,100L2640,100L2520,100L2400,100L2280,100L2160,100L2040,100L1920,100L1800,100L1680,100L1560,100L1440,100L1320,100L1200,100L1080,100L960,100L840,100L720,100L600,100L480,100L360,100L240,100L120,100L0,100Z"/><defs><linearGradient id="sw-gradient-1" x1="0" x2="0" y1="1" y2="0"><stop stop-color="rgba(0, 0, 0, 1)" offset="0%"/><stop stop-color="rgba(39, 109, 180, 1)" offset="100%"/></linearGradient></defs><path style="transform:translate(0, 50px); opacity:0.9" fill="url(#sw-gradient-1)" d="M0,50L120,40L240,80L360,60L480,70L600,20L720,80L840,90L960,10L1080,0L1200,40L1320,90L1440,10L1560,80L1680,70L1800,40L1920,40L2040,80L2160,0L2280,80L2400,0L2520,90L2640,40L2760,20L2880,20L2880,100L2760,100L2640,100L2520,100L2400,100L2280,100L2160,100L2040,100L1920,100L1800,100L1680,100L1560,100L1440,100L1320,100L1200,100L1080,100L960,100L840,100L720,100L600,100L480,100L360,100L240,100L120,100L0,100Z"/><defs><linearGradient id="sw-gradient-2" x1="0" x2="0" y1="1" y2="0"><stop stop-color="rgba(243, 106, 62, 1)" offset="0%"/><stop stop-color="rgba(255, 179, 11, 1)" offset="100%"/></linearGradient></defs><path style="transform:translate(0, 100px); opacity:0.8" fill="url(#sw-gradient-2)" d="M0,10L120,40L240,70L360,20L480,70L600,50L720,0L840,50L960,80L1080,30L1200,70L1320,0L1440,50L1560,10L1680,50L1800,30L1920,10L2040,70L2160,0L2280,10L2400,50L2520,60L2640,20L2760,20L2880,70L2880,100L2760,100L2640,100L2520,100L2400,100L2280,100L2160,100L2040,100L1920,100L1800,100L1680,100L1560,100L1440,100L1320,100L1200,100L1080,100L960,100L840,100L720,100L600,100L480,100L360,100L240,100L120,100L0,100Z"/></svg>